<svg width="24" height="25" viewBox="0 0 24 25" fill="none" xmlns="http://www.w3.org/2000/svg">
<g clip-path="url(#clip0_204_888)">
<path d="M24 12.5V12.494C24 8.943 22.454 5.754 19.999 3.561L19.987 3.551C19.9567 3.51831 19.9228 3.48913 19.886 3.464L19.884 3.463C17.7036 1.54853 14.8996 0.495345 11.998 0.500999C8.966 0.500999 6.198 1.627 4.088 3.485L4.101 3.474C4.07557 3.49329 4.05212 3.51506 4.031 3.539V3.54C2.76253 4.66319 1.7472 6.04309 1.05226 7.58829C0.357326 9.13349 -0.00134689 10.8087 3.80066e-06 12.503C3.80066e-06 16.053 1.544 19.242 3.997 21.436L4.009 21.446C4.04077 21.482 4.07631 21.5145 4.115 21.543L4.117 21.544C6.29684 23.4556 9.09869 24.5073 11.998 24.502C14.9109 24.5065 17.7247 23.4451 19.909 21.518L19.896 21.529C21.1865 20.4071 22.2209 19.021 22.9293 17.4647C23.6377 15.9083 24.0035 14.218 24.002 12.508V12.501L24 12.5ZM19.538 20.305C18.9436 19.8242 18.3043 19.4015 17.629 19.043L17.564 19.011C18.177 17.244 18.546 15.207 18.581 13.088V13.072H22.842C22.6983 15.8134 21.5184 18.3978 19.541 20.302L19.538 20.305ZM12.572 18.8C13.855 18.869 15.054 19.151 16.16 19.61L16.088 19.584C15.202 21.604 13.955 22.992 12.572 23.297V18.8ZM12.572 17.656V13.072H17.44C17.4014 14.9703 17.0722 16.8514 16.464 18.65L16.503 18.519C15.2615 18.0087 13.941 17.7171 12.6 17.657L12.573 17.656H12.572ZM12.572 11.928V7.344C13.9492 7.28115 15.305 6.97967 16.579 6.453L16.5 6.482C17.055 8.101 17.396 9.967 17.44 11.907V11.928H12.572ZM12.572 6.2V1.705C13.955 2.01 15.202 3.392 16.088 5.418C15.054 5.848 13.855 6.129 12.601 6.199L12.572 6.2ZM15.426 2.2C16.6044 2.59303 17.7064 3.18566 18.684 3.952L18.661 3.934C18.218 4.282 17.721 4.61 17.197 4.895L17.141 4.923C16.7176 3.92373 16.1354 2.99947 15.417 2.186L15.426 2.197V2.2ZM11.426 1.708V6.2C10.1925 6.13707 8.97891 5.8631 7.838 5.39L7.91 5.416C8.8 3.396 10.045 2.009 11.428 1.704L11.426 1.708ZM6.858 4.92C6.31593 4.62836 5.79943 4.29149 5.314 3.913L5.338 3.931C6.28714 3.18715 7.35472 2.6084 8.496 2.219L8.572 2.196C7.87242 2.98743 7.30238 3.88451 6.883 4.854L6.858 4.919V4.92ZM11.428 7.343V11.927H6.56C6.604 9.966 6.945 8.1 7.539 6.35L7.5 6.481C8.74106 6.99047 10.0608 7.28175 11.401 7.342L11.428 7.343ZM11.428 13.071V17.655C10.0508 17.7179 8.69504 18.0193 7.421 18.546L7.5 18.517C6.945 16.899 6.604 15.032 6.56 13.092V13.071H11.428ZM11.428 18.799V23.294C10.045 22.989 8.798 21.607 7.912 19.581C8.946 19.151 10.145 18.871 11.399 18.801L11.428 18.8V18.799ZM8.578 22.799C7.39996 22.4071 6.29794 21.8159 5.32 21.051L5.344 21.069C5.787 20.721 6.284 20.393 6.808 20.108L6.864 20.08C7.28389 21.0797 7.86606 22.0031 8.587 22.813L8.578 22.803V22.799ZM17.142 20.079C17.722 20.394 18.219 20.721 18.686 21.086L18.662 21.068C17.7129 21.8118 16.6453 22.3906 15.504 22.78L15.428 22.803C16.1276 22.0119 16.6976 21.1152 17.117 20.146L17.142 20.081V20.079ZM22.842 11.928H18.581C18.5503 9.85895 18.1933 7.80771 17.523 5.85L17.564 5.988C18.2704 5.61606 18.9392 5.17668 19.561 4.676L19.537 4.694C21.5103 6.59103 22.6906 9.16584 22.84 11.899L22.841 11.927L22.842 11.928ZM4.462 4.695C5.038 5.163 5.685 5.592 6.371 5.957L6.436 5.989C5.823 7.756 5.454 9.793 5.419 11.912V11.928H1.157C1.3007 9.1866 2.48065 6.60221 4.458 4.698L4.461 4.695H4.462ZM1.158 13.072H5.419C5.44966 15.141 5.80672 17.1923 6.477 19.15L6.436 19.012C5.685 19.411 5.039 19.84 4.439 20.324L4.463 20.306C2.48974 18.409 1.30937 15.8342 1.16 13.101L1.159 13.073L1.158 13.072Z" fill="white"/>
</g>
<defs>
<clipPath id="clip0_204_888">
<rect width="24" height="24" fill="white" transform="translate(0 0.5)"/>
</clipPath>
</defs>
</svg>
