<svg width="184" height="64" viewBox="0 0 184 64" fill="none" xmlns="http://www.w3.org/2000/svg">
<path d="M39.5625 10.625H25.625C24.25 10.625 23.5625 11.6042 23.5625 13.5625C23.5625 14.625 23.9375 15.5417 24.6875 16.3125L35 27.125L43 19.125C44.0208 18.1458 44.5312 16.9583 44.5312 15.5625C44.5312 14.2083 44.0417 13.0417 43.0625 12.0625C42.1042 11.1042 40.9375 10.625 39.5625 10.625ZM43 40.0312L22.2188 18.7188C20.8229 17.3021 20.125 15.5833 20.125 13.5625C20.125 12.4792 20.3021 11.5 20.6562 10.625H11.5312C10.1771 10.625 9.01042 11.1042 8.03125 12.0625C7.07292 13.0208 6.59375 14.1875 6.59375 15.5625V43.5938C6.59375 44.9479 7.07292 46.1146 8.03125 47.0938C9.01042 48.0521 10.1771 48.5312 11.5312 48.5312H39.5625C40.875 48.5312 42.0104 48.0833 42.9688 47.1875C43.9271 46.2708 44.4375 45.1562 44.5 43.8438C44.5208 43.7604 44.5312 43.6771 44.5312 43.5938C44.5312 42.1771 44.0208 40.9896 43 40.0312ZM11.5312 7.15625H39.5625C41.875 7.15625 43.8542 7.97917 45.5 9.625C47.1458 11.2708 47.9688 13.25 47.9688 15.5625C47.9688 17.9583 47.1042 19.9792 45.375 21.625L37.4375 29.5938L45.375 37.5312C47.1042 39.1771 47.9688 41.1979 47.9688 43.5938C47.9688 43.7604 47.9688 43.9062 47.9688 44.0312C47.8438 46.2604 46.9792 48.1458 45.375 49.6875C43.75 51.2292 41.8125 52 39.5625 52H11.5312C9.21875 52 7.23958 51.1771 5.59375 49.5312C3.94792 47.8854 3.125 45.9062 3.125 43.5938V15.5625C3.125 13.25 3.94792 11.2708 5.59375 9.625C7.23958 7.97917 9.21875 7.15625 11.5312 7.15625Z" fill="white"/>
<path d="M69.192 40L64.032 34.192V40H61.848V22.24H64.032V32.68L69.096 26.848H72.144L65.952 33.4L72.168 40H69.192ZM79.9356 40.216C78.7036 40.216 77.5836 39.936 76.5756 39.376C75.5836 38.816 74.7996 38.024 74.2236 37C73.6636 35.96 73.3836 34.76 73.3836 33.4C73.3836 32.056 73.6716 30.872 74.2476 29.848C74.8396 28.808 75.6396 28.016 76.6476 27.472C77.6556 26.912 78.7836 26.632 80.0316 26.632C81.2796 26.632 82.4076 26.912 83.4156 27.472C84.4236 28.016 85.2156 28.8 85.7916 29.824C86.3836 30.848 86.6796 32.04 86.6796 33.4C86.6796 34.76 86.3756 35.96 85.7676 37C85.1756 38.024 84.3676 38.816 83.3436 39.376C82.3196 39.936 81.1836 40.216 79.9356 40.216ZM79.9356 38.296C80.7196 38.296 81.4556 38.112 82.1436 37.744C82.8316 37.376 83.3836 36.824 83.7996 36.088C84.2316 35.352 84.4476 34.456 84.4476 33.4C84.4476 32.344 84.2396 31.448 83.8236 30.712C83.4076 29.976 82.8636 29.432 82.1916 29.08C81.5196 28.712 80.7916 28.528 80.0076 28.528C79.2076 28.528 78.4716 28.712 77.7996 29.08C77.1436 29.432 76.6156 29.976 76.2156 30.712C75.8156 31.448 75.6156 32.344 75.6156 33.4C75.6156 34.472 75.8076 35.376 76.1916 36.112C76.5916 36.848 77.1196 37.4 77.7756 37.768C78.4316 38.12 79.1516 38.296 79.9356 38.296ZM107.071 26.848L102.967 40H100.711L97.5431 29.56L94.3751 40H92.1191L87.9911 26.848H90.2231L93.2471 37.888L96.5111 26.848H98.7431L101.935 37.912L104.911 26.848H107.071ZM108.423 33.376C108.423 32.032 108.695 30.856 109.239 29.848C109.783 28.824 110.527 28.032 111.471 27.472C112.431 26.912 113.495 26.632 114.663 26.632C115.815 26.632 116.815 26.88 117.663 27.376C118.511 27.872 119.143 28.496 119.559 29.248V26.848H121.767V40H119.559V37.552C119.127 38.32 118.479 38.96 117.615 39.472C116.767 39.968 115.775 40.216 114.639 40.216C113.471 40.216 112.415 39.928 111.471 39.352C110.527 38.776 109.783 37.968 109.239 36.928C108.695 35.888 108.423 34.704 108.423 33.376ZM119.559 33.4C119.559 32.408 119.359 31.544 118.959 30.808C118.559 30.072 118.015 29.512 117.327 29.128C116.655 28.728 115.911 28.528 115.095 28.528C114.279 28.528 113.535 28.72 112.863 29.104C112.191 29.488 111.655 30.048 111.255 30.784C110.855 31.52 110.655 32.384 110.655 33.376C110.655 34.384 110.855 35.264 111.255 36.016C111.655 36.752 112.191 37.32 112.863 37.72C113.535 38.104 114.279 38.296 115.095 38.296C115.911 38.296 116.655 38.104 117.327 37.72C118.015 37.32 118.559 36.752 118.959 36.016C119.359 35.264 119.559 34.392 119.559 33.4ZM131.865 26.608C133.465 26.608 134.761 27.096 135.753 28.072C136.745 29.032 137.241 30.424 137.241 32.248V40H135.081V32.56C135.081 31.248 134.753 30.248 134.097 29.56C133.441 28.856 132.545 28.504 131.409 28.504C130.257 28.504 129.337 28.864 128.649 29.584C127.977 30.304 127.641 31.352 127.641 32.728V40H125.457V26.848H127.641V28.72C128.073 28.048 128.657 27.528 129.393 27.16C130.145 26.792 130.969 26.608 131.865 26.608ZM139.993 33.376C139.993 32.032 140.265 30.856 140.809 29.848C141.353 28.824 142.097 28.032 143.041 27.472C144.001 26.912 145.065 26.632 146.233 26.632C147.385 26.632 148.385 26.88 149.233 27.376C150.081 27.872 150.713 28.496 151.129 29.248V26.848H153.337V40H151.129V37.552C150.697 38.32 150.049 38.96 149.185 39.472C148.337 39.968 147.345 40.216 146.209 40.216C145.041 40.216 143.985 39.928 143.041 39.352C142.097 38.776 141.353 37.968 140.809 36.928C140.265 35.888 139.993 34.704 139.993 33.376ZM151.129 33.4C151.129 32.408 150.929 31.544 150.529 30.808C150.129 30.072 149.585 29.512 148.897 29.128C148.225 28.728 147.481 28.528 146.665 28.528C145.849 28.528 145.105 28.72 144.433 29.104C143.761 29.488 143.225 30.048 142.825 30.784C142.425 31.52 142.225 32.384 142.225 33.376C142.225 34.384 142.425 35.264 142.825 36.016C143.225 36.752 143.761 37.32 144.433 37.72C145.105 38.104 145.849 38.296 146.665 38.296C147.481 38.296 148.225 38.104 148.897 37.72C149.585 37.32 150.129 36.752 150.529 36.016C150.929 35.264 151.129 34.392 151.129 33.4ZM161.684 40.216C160.676 40.216 159.772 40.048 158.972 39.712C158.172 39.36 157.54 38.88 157.076 38.272C156.612 37.648 156.356 36.936 156.308 36.136H158.564C158.628 36.792 158.932 37.328 159.476 37.744C160.036 38.16 160.764 38.368 161.66 38.368C162.492 38.368 163.148 38.184 163.628 37.816C164.108 37.448 164.348 36.984 164.348 36.424C164.348 35.848 164.092 35.424 163.58 35.152C163.068 34.864 162.276 34.584 161.204 34.312C160.228 34.056 159.428 33.8 158.804 33.544C158.196 33.272 157.668 32.88 157.22 32.368C156.788 31.84 156.572 31.152 156.572 30.304C156.572 29.632 156.772 29.016 157.172 28.456C157.572 27.896 158.14 27.456 158.876 27.136C159.612 26.8 160.452 26.632 161.396 26.632C162.852 26.632 164.028 27 164.924 27.736C165.82 28.472 166.3 29.48 166.364 30.76H164.18C164.132 30.072 163.852 29.52 163.34 29.104C162.844 28.688 162.172 28.48 161.324 28.48C160.54 28.48 159.916 28.648 159.452 28.984C158.988 29.32 158.756 29.76 158.756 30.304C158.756 30.736 158.892 31.096 159.164 31.384C159.452 31.656 159.804 31.88 160.22 32.056C160.652 32.216 161.244 32.4 161.996 32.608C162.94 32.864 163.708 33.12 164.3 33.376C164.892 33.616 165.396 33.984 165.812 34.48C166.244 34.976 166.468 35.624 166.484 36.424C166.484 37.144 166.284 37.792 165.884 38.368C165.484 38.944 164.916 39.4 164.18 39.736C163.46 40.056 162.628 40.216 161.684 40.216ZM175.303 40.216C174.071 40.216 172.951 39.936 171.943 39.376C170.951 38.816 170.167 38.024 169.591 37C169.031 35.96 168.751 34.76 168.751 33.4C168.751 32.056 169.039 30.872 169.615 29.848C170.207 28.808 171.007 28.016 172.015 27.472C173.023 26.912 174.151 26.632 175.399 26.632C176.647 26.632 177.775 26.912 178.783 27.472C179.791 28.016 180.583 28.8 181.159 29.824C181.751 30.848 182.047 32.04 182.047 33.4C182.047 34.76 181.743 35.96 181.135 37C180.543 38.024 179.735 38.816 178.711 39.376C177.687 39.936 176.551 40.216 175.303 40.216ZM175.303 38.296C176.087 38.296 176.823 38.112 177.511 37.744C178.199 37.376 178.751 36.824 179.167 36.088C179.599 35.352 179.815 34.456 179.815 33.4C179.815 32.344 179.607 31.448 179.191 30.712C178.775 29.976 178.231 29.432 177.559 29.08C176.887 28.712 176.159 28.528 175.375 28.528C174.575 28.528 173.839 28.712 173.167 29.08C172.511 29.432 171.983 29.976 171.583 30.712C171.183 31.448 170.983 32.344 170.983 33.4C170.983 34.472 171.175 35.376 171.559 36.112C171.959 36.848 172.487 37.4 173.143 37.768C173.799 38.12 174.519 38.296 175.303 38.296Z" fill="white"/>
</svg>
